<?xml version="1.0" encoding="UTF-8" standalone="no"?>
<!DOCTYPE svg PUBLIC "-//W3C//DTD SVG 1.1//EN"
 "http://www.w3.org/Graphics/SVG/1.1/DTD/svg11.dtd">
<!-- Generated by graphviz version 2.50.0 (20211204.2007)
 -->
<!-- Title: G Pages: 1 -->
<svg width="1942pt" height="1029pt"
 viewBox="0.00 0.00 1941.50 1029.00" xmlns="http://www.w3.org/2000/svg" xmlns:xlink="http://www.w3.org/1999/xlink">
<g id="graph0" class="graph" transform="scale(1 1) rotate(0) translate(4 1025)">
<title>G</title>
<polygon fill="white" stroke="transparent" points="-4,4 -4,-1025 1937.5,-1025 1937.5,4 -4,4"/>
<text text-anchor="middle" x="966.75" y="-993" font-family="Helvetica,Arial,sans-serif" font-size="30.00">Decentraland</text>
<g id="clust1" class="cluster">
<title>cluster_catalyst</title>
<g id="a_clust1"><a xlink:href="https://github.com/decentraland/catalyst" xlink:title="Catalyst &lt;BR/&gt; &lt;FONT POINT&#45;SIZE=&quot;15&quot;&gt;Decentralized Servers&lt;/FONT&gt;">
<polygon fill="#a6bddb" stroke="black" points="218,-394 218,-904 558,-904 558,-394 218,-394"/>
<text text-anchor="start" x="341" y="-881.8" font-family="Helvetica,Arial,sans-serif" font-size="24.00">Catalyst </text>
<text text-anchor="start" x="310.5" y="-857.8" font-family="Helvetica,Arial,sans-serif" font-size="24.00"> </text>
<text text-anchor="start" x="317.5" y="-857.8" font-family="Helvetica,Arial,sans-serif" font-size="15.00">Decentralized Servers</text>
</a>
</g>
</g>
<g id="clust2" class="cluster">
<title>cluster_cli</title>
<polygon fill="#a6bddb" stroke="black" points="156,-117 156,-386 370,-386 370,-117 156,-117"/>
<text text-anchor="start" x="244" y="-363.8" font-family="Helvetica,Arial,sans-serif" font-size="24.00">CLI</text>
<text text-anchor="start" x="183.5" y="-341" font-family="Helvetica,Arial,sans-serif" font-size="10.00">Command line to start new projects,</text>
<text text-anchor="start" x="201" y="-331" font-family="Helvetica,Arial,sans-serif" font-size="10.00">preview changes and deploy</text>
<text text-anchor="start" x="210" y="-321" font-family="Helvetica,Arial,sans-serif" font-size="10.00">scenes and smart items</text>
</g>
<g id="clust3" class="cluster">
<title>cluster_webbrowser</title>
<polygon fill="#a6bddb" stroke="black" points="586,-8 586,-972 1694,-972 1694,-8 586,-8"/>
<text text-anchor="middle" x="1140" y="-948.8" font-family="Helvetica,Arial,sans-serif" font-size="24.00">Web Browser</text>
</g>
<g id="clust4" class="cluster">
<title>cluster_sceneruntime</title>
<polygon fill="#67a9cf" stroke="black" points="1194,-214 1194,-659 1686,-659 1686,-214 1194,-214"/>
<text text-anchor="middle" x="1440" y="-635.8" font-family="Helvetica,Arial,sans-serif" font-size="24.00">Scene Runtime (Web Worker)</text>
</g>
<g id="clust5" class="cluster">
<title>cluster_bundle</title>
<polygon fill="#3690c0" stroke="black" points="1403,-222 1403,-617 1678,-617 1678,-222 1403,-222"/>
<text text-anchor="middle" x="1540.5" y="-593.8" font-family="Helvetica,Arial,sans-serif" font-size="24.00">Scene Compiled Bundle</text>
</g>
<g id="clust6" class="cluster">
<title>cluster_website</title>
<polygon fill="#67a9cf" stroke="black" points="1319,-760 1319,-882 1517,-882 1517,-760 1319,-760"/>
<text text-anchor="middle" x="1418" y="-858.8" font-family="Helvetica,Arial,sans-serif" font-size="24.00">Web App</text>
</g>
<g id="clust7" class="cluster">
<title>cluster_Kernel</title>
<g id="a_clust7"><a xlink:href="https://github.com/decentraland/kernel" xlink:title="Kernel&lt;FONT POINT&#45;SIZE=&quot;10&quot;&gt;&lt;BR/&gt;&lt;BR/&gt;Code package to bind all low level constructs&lt;BR/&gt; of Decentraland to generate an&lt;BR/&gt; usable Explorer Arrows are omitted for clarity.&lt;BR/&gt; Assume everything is connected to Sagas.&lt;/FONT&gt;">
<polygon fill="#67a9cf" stroke="black" points="850,-16 850,-930 1186,-930 1186,-16 850,-16"/>
<text text-anchor="start" x="983" y="-907.8" font-family="Helvetica,Arial,sans-serif" font-size="24.00">Kernel</text>
<text text-anchor="start" x="918.5" y="-885" font-family="Helvetica,Arial,sans-serif" font-size="10.00">Code package to bind all low level constructs</text>
<text text-anchor="start" x="949" y="-875" font-family="Helvetica,Arial,sans-serif" font-size="10.00"> of Decentraland to generate an</text>
<text text-anchor="start" x="917.5" y="-865" font-family="Helvetica,Arial,sans-serif" font-size="10.00"> usable Explorer Arrows are omitted for clarity.</text>
<text text-anchor="start" x="923" y="-855" font-family="Helvetica,Arial,sans-serif" font-size="10.00"> Assume everything is connected to Sagas.</text>
</a>
</g>
</g>
<!-- Comms -->
<g id="node1" class="node">
<title>Comms</title>
<g id="a_node1"><a xlink:href="https://github.com/decentraland/catalyst/tree/main/comms/lighthouse" xlink:title="Comms&lt;BR /&gt; &lt;FONT POINT&#45;SIZE=&quot;10&quot;&gt;Users P2P networks&lt;/FONT&gt;">
<polygon fill="#fff7fb" stroke="black" stroke-width="2" points="370,-840 226,-840 226,-768 370,-768 370,-840"/>
<text text-anchor="start" x="261.5" y="-809.2" font-family="Helvetica,Arial,sans-serif" font-size="21.00">Comms</text>
<text text-anchor="start" x="249" y="-788.2" font-family="Helvetica,Arial,sans-serif" font-size="21.00"> </text>
<text text-anchor="start" x="256" y="-788.2" font-family="Helvetica,Arial,sans-serif" font-size="10.00">Users P2P networks</text>
</a>
</g>
</g>
<!-- Nginx -->
<g id="node2" class="node">
<title>Nginx</title>
<polygon fill="#fff7fb" stroke="black" stroke-width="2" points="550,-840 406,-840 406,-768 550,-768 550,-840"/>
<text text-anchor="start" x="450.5" y="-809.2" font-family="Helvetica,Arial,sans-serif" font-size="21.00">Nginx</text>
<text text-anchor="start" x="441.5" y="-788.2" font-family="Helvetica,Arial,sans-serif" font-size="21.00"> </text>
<text text-anchor="start" x="448.5" y="-788.2" font-family="Helvetica,Arial,sans-serif" font-size="10.00">Reverse Proxy</text>
</g>
<!-- Comms&#45;&gt;Nginx -->
<g id="edge5" class="edge">
<title>Comms&#45;&gt;Nginx</title>
<path fill="none" stroke="black" d="M380.15,-804C385.38,-804 390.61,-804 395.84,-804"/>
<polygon fill="black" stroke="black" points="380.07,-800.5 370.07,-804 380.07,-807.5 380.07,-800.5"/>
<polygon fill="black" stroke="black" points="395.91,-807.5 405.91,-804 395.91,-800.5 395.91,-807.5"/>
</g>
<!-- Lambdas -->
<g id="node3" class="node">
<title>Lambdas</title>
<g id="a_node3"><a xlink:href="https://github.com/decentraland/catalyst/tree/main/lambdas" xlink:title="Lambdas&lt;BR/&gt; &lt;FONT POINT&#45;SIZE=&quot;10&quot;&gt;Utilities to retrieve and validate data&lt;/FONT&gt;">
<polygon fill="#fff7fb" stroke="black" stroke-width="2" points="406,-739 226,-739 226,-667 406,-667 406,-739"/>
<text text-anchor="start" x="272" y="-708.2" font-family="Helvetica,Arial,sans-serif" font-size="21.00">Lambdas</text>
<text text-anchor="start" x="234" y="-687.2" font-family="Helvetica,Arial,sans-serif" font-size="21.00"> </text>
<text text-anchor="start" x="241" y="-687.2" font-family="Helvetica,Arial,sans-serif" font-size="10.00">Utilities to retrieve and validate data</text>
</a>
</g>
</g>
<!-- Comms&#45;&gt;Lambdas -->
<!-- CatalystClient -->
<g id="node6" class="node">
<title>CatalystClient</title>
<g id="a_node6"><a xlink:href="https://github.com/decentraland/catalyst-client" xlink:title="Catalyst Client&lt;BR/&gt; &lt;FONT POINT&#45;SIZE=&quot;10&quot;&gt;Library to interact with Catalyst Servers&lt;/FONT&gt;">
<polygon fill="#fff7fb" stroke="black" stroke-width="2" points="577.5,-302 380.5,-302 380.5,-230 577.5,-230 577.5,-302"/>
<text text-anchor="start" x="410.5" y="-271.2" font-family="Helvetica,Arial,sans-serif" font-size="21.00">Catalyst Client</text>
<text text-anchor="start" x="388.5" y="-250.2" font-family="Helvetica,Arial,sans-serif" font-size="21.00"> </text>
<text text-anchor="start" x="395.5" y="-250.2" font-family="Helvetica,Arial,sans-serif" font-size="10.00">Library to interact with Catalyst Servers</text>
</a>
</g>
</g>
<!-- Nginx&#45;&gt;CatalystClient -->
<g id="edge7" class="edge">
<title>Nginx&#45;&gt;CatalystClient</title>
<path fill="none" stroke="black" d="M478.08,-757.59C478.27,-656.48 478.73,-413.7 478.92,-312.5"/>
<polygon fill="black" stroke="black" points="474.58,-757.82 478.07,-767.83 481.58,-757.84 474.58,-757.82"/>
<polygon fill="black" stroke="black" points="482.42,-312.3 478.93,-302.3 475.42,-312.29 482.42,-312.3"/>
</g>
<!-- Lambdas&#45;&gt;Nginx -->
<g id="edge4" class="edge">
<title>Lambdas&#45;&gt;Nginx</title>
<path fill="none" stroke="black" d="M381.93,-744.29C391.75,-750.29 401.89,-756.49 411.72,-762.5"/>
<polygon fill="black" stroke="black" points="383.74,-741.3 373.39,-739.07 380.09,-747.27 383.74,-741.3"/>
<polygon fill="black" stroke="black" points="410.07,-765.59 420.43,-767.82 413.72,-759.62 410.07,-765.59"/>
</g>
<!-- Content -->
<g id="node4" class="node">
<title>Content</title>
<g id="a_node4"><a xlink:href="https://github.com/decentraland/catalyst/tree/main/content" xlink:title="Content Server&lt;BR/&gt; &lt;FONT POINT&#45;SIZE=&quot;10&quot;&gt;Assets Storage&lt;/FONT&gt;">
<polygon fill="#fff7fb" stroke="black" stroke-width="2" points="396,-474 236,-474 236,-402 396,-402 396,-474"/>
<text text-anchor="start" x="244" y="-443.2" font-family="Helvetica,Arial,sans-serif" font-size="21.00">Content Server</text>
<text text-anchor="start" x="278.5" y="-422.2" font-family="Helvetica,Arial,sans-serif" font-size="21.00"> </text>
<text text-anchor="start" x="285.5" y="-422.2" font-family="Helvetica,Arial,sans-serif" font-size="10.00">Assets Storage</text>
</a>
</g>
</g>
<!-- Lambdas&#45;&gt;Content -->
<!-- Content&#45;&gt;Nginx -->
<g id="edge3" class="edge">
<title>Content:e&#45;&gt;Nginx</title>
<path fill="none" stroke="black" d="M405.68,-443.12C434.81,-476.82 461.57,-668.42 472.63,-757.48"/>
<polygon fill="black" stroke="black" points="407.39,-440.06 397,-438 403.84,-446.09 407.39,-440.06"/>
<polygon fill="black" stroke="black" points="469.19,-758.17 473.88,-767.67 476.14,-757.32 469.19,-758.17"/>
</g>
<!-- TheGraph -->
<g id="node5" class="node">
<title>TheGraph</title>
<g id="a_node5"><a xlink:href="https://thegraph.com/hosted-service/subgraph/decentraland/collections-matic-mainnet" xlink:title="The Graph&lt;BR/&gt; &lt;FONT POINT&#45;SIZE=&quot;10&quot;&gt;Query the Blockchain&lt;/FONT&gt;">
<polygon fill="#fff7fb" stroke="black" stroke-width="2" points="144,-302 0,-302 0,-230 144,-230 144,-302"/>
<text text-anchor="start" x="20.5" y="-271.2" font-family="Helvetica,Arial,sans-serif" font-size="21.00">The Graph</text>
<text text-anchor="start" x="21.5" y="-250.2" font-family="Helvetica,Arial,sans-serif" font-size="21.00"> </text>
<text text-anchor="start" x="28.5" y="-250.2" font-family="Helvetica,Arial,sans-serif" font-size="10.00">Query the Blockchain</text>
</a>
</g>
</g>
<!-- Content&#45;&gt;TheGraph -->
<g id="edge6" class="edge">
<title>Content:w&#45;&gt;TheGraph</title>
<path fill="none" stroke="black" d="M218,-436.49C156.94,-425.54 113.71,-357.62 90.84,-311.16"/>
<polygon fill="black" stroke="black" points="93.94,-309.53 86.47,-302.02 87.63,-312.55 93.94,-309.53"/>
</g>
<!-- CLI -->
<g id="node7" class="node">
<title>CLI</title>
<g id="a_node7"><a xlink:href="https://github.com/decentraland/cli" xlink:title="CLI&lt;BR/&gt; &lt;FONT POINT&#45;SIZE=&quot;10&quot;&gt;&lt;BR/&gt;Compiles scenes (build&#45;ecs)&lt;BR/&gt;Preview scenes in browser&lt;BR/&gt;Uploads compiled code to catalys&lt;/FONT&gt;">
<polygon fill="#fff7fb" stroke="black" stroke-width="2" points="344,-306 180,-306 180,-226 344,-226 344,-306"/>
<text text-anchor="start" x="245" y="-286.2" font-family="Helvetica,Arial,sans-serif" font-size="21.00">CLI</text>
<text text-anchor="start" x="258.5" y="-265.2" font-family="Helvetica,Arial,sans-serif" font-size="21.00"> </text>
<text text-anchor="start" x="200" y="-253" font-family="Helvetica,Arial,sans-serif" font-size="10.00">Compiles scenes (build&#45;ecs)</text>
<text text-anchor="start" x="203" y="-243" font-family="Helvetica,Arial,sans-serif" font-size="10.00">Preview scenes in browser</text>
<text text-anchor="start" x="188" y="-233" font-family="Helvetica,Arial,sans-serif" font-size="10.00">Uploads compiled code to catalys</text>
</a>
</g>
</g>
<!-- Content&#45;&gt;CLI -->
<!-- SceneRuntime -->
<g id="node12" class="node">
<title>SceneRuntime</title>
<g id="a_node12"><a xlink:href="https://github.com/decentraland/matrix-client" xlink:title="Scene Runtime&lt;BR/&gt; &lt;FONT POINT&#45;SIZE=&quot;10&quot;&gt;Handles SDK bindings&lt;br/&gt;and messaging with the Scene in Kernel&lt;/FONT&gt;">
<polygon fill="#fff7fb" stroke="black" stroke-width="2" points="1394,-474 1202,-474 1202,-402 1394,-402 1394,-474"/>
<text text-anchor="start" x="1225" y="-448.2" font-family="Helvetica,Arial,sans-serif" font-size="21.00">Scene Runtime</text>
<text text-anchor="start" x="1244.5" y="-427.2" font-family="Helvetica,Arial,sans-serif" font-size="21.00"> </text>
<text text-anchor="start" x="1251.5" y="-427.2" font-family="Helvetica,Arial,sans-serif" font-size="10.00">Handles SDK bindings</text>
<text text-anchor="start" x="1210" y="-415" font-family="Helvetica,Arial,sans-serif" font-size="10.00">and messaging with the Scene in Kernel</text>
</a>
</g>
</g>
<!-- Content&#45;&gt;SceneRuntime -->
<g id="edge30" class="edge">
<title>Content:e&#45;&gt;SceneRuntime</title>
<path fill="none" stroke="black" d="M407.06,-438.17C489.22,-440.94 508.32,-477.62 595,-488.5 659.16,-496.55 1113.59,-501.2 1177,-488.5 1189.63,-485.97 1202.58,-482.09 1215.11,-477.59"/>
<polygon fill="black" stroke="black" points="407.06,-434.67 397,-438 406.94,-441.67 407.06,-434.67"/>
<polygon fill="black" stroke="black" points="1216.45,-480.82 1224.59,-474.03 1213.99,-474.26 1216.45,-480.82"/>
</g>
<!-- Renderer -->
<g id="node25" class="node">
<title>Renderer</title>
<g id="a_node25"><a xlink:href="https://github.com/decentraland/unity-renderer/" xlink:title="Renderer&lt;BR/&gt; &lt;FONT POINT&#45;SIZE=&quot;10&quot;&gt;Different implementations of renderers are available&lt;BR/&gt;to debug in Unity Editor&lt;/FONT&gt;">
<polygon fill="#fff7fb" stroke="black" stroke-width="2" points="842,-474 594,-474 594,-402 842,-402 842,-474"/>
<text text-anchor="start" x="673.5" y="-448.2" font-family="Helvetica,Arial,sans-serif" font-size="21.00">Renderer</text>
<text text-anchor="start" x="602" y="-427.2" font-family="Helvetica,Arial,sans-serif" font-size="21.00"> </text>
<text text-anchor="start" x="609" y="-427.2" font-family="Helvetica,Arial,sans-serif" font-size="10.00">Different implementations of renderers are available</text>
<text text-anchor="start" x="666.5" y="-415" font-family="Helvetica,Arial,sans-serif" font-size="10.00">to debug in Unity Editor</text>
</a>
</g>
</g>
<!-- Content&#45;&gt;Renderer -->
<g id="edge27" class="edge">
<title>Content&#45;&gt;Renderer</title>
<path fill="none" stroke="black" d="M406.13,-438C465.27,-438 524.42,-438 583.56,-438"/>
<polygon fill="black" stroke="black" points="406.09,-434.5 396.09,-438 406.09,-441.5 406.09,-434.5"/>
<polygon fill="black" stroke="black" points="583.82,-441.5 593.82,-438 583.82,-434.5 583.82,-441.5"/>
</g>
<!-- CLI&#45;&gt;CatalystClient -->
<g id="edge10" class="edge">
<title>CLI&#45;&gt;CatalystClient</title>
<path fill="none" stroke="black" d="M344.22,-266C356.24,-266 368.26,-266 380.29,-266"/>
</g>
<!-- build&#45;ecs -->
<g id="node8" class="node">
<title>build&#45;ecs</title>
<g id="a_node8"><a xlink:href="https://github.com/decentraland/js-sdk-toolchain/blob/c648dcabc0ac1aade3cf143769f7e7f67ffba95b/packages/%40dcl/build-ecs/index.ts" xlink:title="build&#45;ecs&lt;FONT POINT&#45;SIZE=&quot;10&quot;&gt;&lt;BR/&gt;Bundles code from senes, AMD and ECS&lt;BR/&gt;to generate deployable scenes&lt;/FONT&gt;">
<polygon fill="#fff7fb" stroke="black" stroke-width="2" points="362,-197 164,-197 164,-125 362,-125 362,-197"/>
<text text-anchor="start" x="220.5" y="-165.7" font-family="Helvetica,Arial,sans-serif" font-size="21.00">build&#45;ecs</text>
<text text-anchor="start" x="172" y="-153.5" font-family="Helvetica,Arial,sans-serif" font-size="10.00">Bundles code from senes, AMD and ECS</text>
<text text-anchor="start" x="196.5" y="-143.5" font-family="Helvetica,Arial,sans-serif" font-size="10.00">to generate deployable scenes</text>
</a>
</g>
</g>
<!-- CLI&#45;&gt;build&#45;ecs -->
<g id="edge8" class="edge">
<title>CLI&#45;&gt;build&#45;ecs</title>
<path fill="none" stroke="black" d="M262.38,-225.77C262.47,-216.33 262.57,-206.31 262.66,-197.07"/>
</g>
<!-- ECS -->
<g id="node14" class="node">
<title>ECS</title>
<g id="a_node14"><a xlink:href="https://github.com/decentraland/explorer/tree/f4c30a3cab1ef014e1f20efdb2a0a12ef6c996e0/kernel/packages/decentraland-ecs" xlink:title="ECS&lt;FONT POINT&#45;SIZE=&quot;10&quot;&gt;&lt;BR/&gt;The public library to interact with Decentraland.&lt;BR/&gt;Sometimes people refers to the ECS as “The SDK”&lt;/FONT&gt;">
<polygon fill="#fff7fb" stroke="black" stroke-width="2" points="1670,-474 1430,-474 1430,-402 1670,-402 1670,-474"/>
<text text-anchor="start" x="1528" y="-442.7" font-family="Helvetica,Arial,sans-serif" font-size="21.00">ECS</text>
<text text-anchor="start" x="1447" y="-430.5" font-family="Helvetica,Arial,sans-serif" font-size="10.00">The public library to interact with Decentraland.</text>
<text text-anchor="start" x="1438" y="-420.5" font-family="Helvetica,Arial,sans-serif" font-size="10.00">Sometimes people refers to the ECS as “The SDK”</text>
</a>
</g>
</g>
<!-- build&#45;ecs&#45;&gt;ECS -->
<g id="edge33" class="edge">
<title>build&#45;ecs:e&#45;&gt;ECS:e</title>
<path fill="none" stroke="black" d="M363,-161C469.2,-161 498.94,-170.9 596,-214 717.6,-267.99 714.42,-345.05 841,-386 868.87,-395.02 1295.26,-393.67 1403,-393.86"/>
</g>
<!-- Synapse -->
<g id="node9" class="node">
<title>Synapse</title>
<g id="a_node9"><a xlink:href="https://github.com/decentraland/catalyst-client" xlink:title="Synapse Matrix Server&lt;BR/&gt; &lt;FONT POINT&#45;SIZE=&quot;10&quot;&gt;Decentralized Service to manages&lt;BR/&gt;private chats and Friendships&lt;/FONT&gt;">
<polygon fill="#fff7fb" stroke="black" stroke-width="2" points="1933.5,-197 1702.5,-197 1702.5,-125 1933.5,-125 1933.5,-197"/>
<text text-anchor="start" x="1710.5" y="-171.2" font-family="Helvetica,Arial,sans-serif" font-size="21.00">Synapse Matrix Server</text>
<text text-anchor="start" x="1739" y="-150.2" font-family="Helvetica,Arial,sans-serif" font-size="21.00"> </text>
<text text-anchor="start" x="1746" y="-150.2" font-family="Helvetica,Arial,sans-serif" font-size="10.00">Decentralized Service to manages</text>
<text text-anchor="start" x="1753.5" y="-138" font-family="Helvetica,Arial,sans-serif" font-size="10.00">private chats and Friendships</text>
</a>
</g>
</g>
<!-- MatrixClient -->
<g id="node10" class="node">
<title>MatrixClient</title>
<g id="a_node10"><a xlink:href="https://github.com/decentraland/matrix-client" xlink:title="Matrix Client&lt;BR/&gt; &lt;FONT POINT&#45;SIZE=&quot;10&quot;&gt;Abstraction over the Matrix protocol to&lt;BR/&gt; enable Friends list and private chats&lt;/FONT&gt;">
<polygon fill="#fff7fb" stroke="black" stroke-width="2" points="1123,-197 933,-197 933,-125 1123,-125 1123,-197"/>
<text text-anchor="start" x="969" y="-171.2" font-family="Helvetica,Arial,sans-serif" font-size="21.00">Matrix Client</text>
<text text-anchor="start" x="941" y="-150.2" font-family="Helvetica,Arial,sans-serif" font-size="21.00"> </text>
<text text-anchor="start" x="948" y="-150.2" font-family="Helvetica,Arial,sans-serif" font-size="10.00">Abstraction over the Matrix protocol to</text>
<text text-anchor="start" x="947.5" y="-138" font-family="Helvetica,Arial,sans-serif" font-size="10.00"> enable Friends list and private chats</text>
</a>
</g>
</g>
<!-- Synapse&#45;&gt;MatrixClient -->
<g id="edge11" class="edge">
<title>Synapse&#45;&gt;MatrixClient</title>
<path fill="none" stroke="black" d="M1692.05,-161C1505.85,-161 1319.65,-161 1133.46,-161"/>
<polygon fill="black" stroke="black" points="1692.33,-164.5 1702.33,-161 1692.33,-157.5 1692.33,-164.5"/>
<polygon fill="black" stroke="black" points="1133.28,-157.5 1123.28,-161 1133.28,-164.5 1133.28,-157.5"/>
</g>
<!-- Sagas -->
<g id="node19" class="node">
<title>Sagas</title>
<ellipse fill="#fff7fb" stroke="black" stroke-width="2" cx="1018" cy="-60" rx="159.65" ry="36"/>
<text text-anchor="start" x="987.5" y="-65.2" font-family="Helvetica,Arial,sans-serif" font-size="21.00">Sagas</text>
<text text-anchor="start" x="911" y="-44.2" font-family="Helvetica,Arial,sans-serif" font-size="21.00"> </text>
<text text-anchor="start" x="918" y="-44.2" font-family="Helvetica,Arial,sans-serif" font-size="10.00">Like an ESB: Everything is connected to sagas</text>
</g>
<!-- MatrixClient&#45;&gt;Sagas -->
<!-- VoiceCodecWorker -->
<g id="node11" class="node">
<title>VoiceCodecWorker</title>
<polygon fill="#fff7fb" stroke="black" stroke-width="2" points="1410,-739 1194,-739 1194,-667 1410,-667 1410,-739"/>
<text text-anchor="start" x="1205.5" y="-707.7" font-family="Helvetica,Arial,sans-serif" font-size="21.00">Voice Codec Worker</text>
<text text-anchor="start" x="1202" y="-685.5" font-family="Helvetica,Arial,sans-serif" font-size="10.00">Encodes/decodes audio using libopus (wasm)</text>
</g>
<!-- SceneRuntime&#45;&gt;ECS -->
<g id="edge29" class="edge">
<title>SceneRuntime&#45;&gt;ECS</title>
<path fill="none" stroke="black" d="M1404.65,-438C1409.61,-438 1414.57,-438 1419.53,-438"/>
<polygon fill="black" stroke="black" points="1404.47,-434.5 1394.47,-438 1404.47,-441.5 1404.47,-434.5"/>
<polygon fill="black" stroke="black" points="1419.71,-441.5 1429.71,-438 1419.71,-434.5 1419.71,-441.5"/>
</g>
<!-- AMD -->
<g id="node13" class="node">
<title>AMD</title>
<g id="a_node13"><a xlink:href="https://github.com/decentraland/js-sdk-toolchain/tree/c648dcabc0ac1aade3cf143769f7e7f67ffba95b/packages/%40dcl/amd" xlink:title="AMD&lt;FONT POINT&#45;SIZE=&quot;10&quot;&gt;&lt;BR/&gt;Manages loading of RPC modules to interact&lt;BR/&gt;with different components of Decentraland&lt;/FONT&gt;">
<polygon fill="#fff7fb" stroke="black" stroke-width="2" points="1656,-575 1444,-575 1444,-503 1656,-503 1656,-575"/>
<text text-anchor="start" x="1526.5" y="-543.7" font-family="Helvetica,Arial,sans-serif" font-size="21.00">AMD</text>
<text text-anchor="start" x="1452" y="-531.5" font-family="Helvetica,Arial,sans-serif" font-size="10.00">Manages loading of RPC modules to interact</text>
<text text-anchor="start" x="1457.5" y="-521.5" font-family="Helvetica,Arial,sans-serif" font-size="10.00">with different components of Decentraland</text>
</a>
</g>
</g>
<!-- AMD&#45;&gt;ECS -->
<!-- UserCode -->
<g id="node15" class="node">
<title>UserCode</title>
<polygon fill="#fff7fb" stroke="black" stroke-width="2" points="1648.5,-302 1451.5,-302 1451.5,-230 1648.5,-230 1648.5,-302"/>
<text text-anchor="start" x="1499" y="-270.7" font-family="Helvetica,Arial,sans-serif" font-size="21.00">User Code</text>
<text text-anchor="start" x="1459.5" y="-258.5" font-family="Helvetica,Arial,sans-serif" font-size="10.00">User generated code is part of the bundle</text>
<text text-anchor="start" x="1518" y="-248.5" font-family="Helvetica,Arial,sans-serif" font-size="10.00"> of the Scenes</text>
</g>
<!-- ECS&#45;&gt;UserCode -->
<!-- ExplorerWebSite -->
<g id="node16" class="node">
<title>ExplorerWebSite</title>
<g id="a_node16"><a xlink:href="https://github.com/decentraland/explorer/tree/df1d30412dcd1a94d933171a39796837aedc87a1/kernel/packages/shared/comms" xlink:title="Explorer Website&lt;FONT POINT&#45;SIZE=&quot;10&quot;&gt;&lt;BR/&gt;&lt;BR/&gt;React App to load kernel and renderer&lt;/FONT&gt;">
<polygon fill="#fff7fb" stroke="black" stroke-width="2" points="1508.5,-840 1327.5,-840 1327.5,-768 1508.5,-768 1508.5,-840"/>
<text text-anchor="start" x="1337.5" y="-808.7" font-family="Helvetica,Arial,sans-serif" font-size="21.00">Explorer Website</text>
<text text-anchor="start" x="1335.5" y="-786.5" font-family="Helvetica,Arial,sans-serif" font-size="10.00">React App to load kernel and renderer</text>
</a>
</g>
</g>
<!-- EthProvider -->
<g id="node18" class="node">
<title>EthProvider</title>
<polygon fill="#fff7fb" stroke="black" stroke-width="2" points="1640,-739 1446,-739 1446,-667 1640,-667 1640,-739"/>
<text text-anchor="middle" x="1543" y="-697.7" font-family="Helvetica,Arial,sans-serif" font-size="21.00">Ethereum Provider</text>
</g>
<!-- ExplorerWebSite&#45;&gt;EthProvider -->
<g id="edge14" class="edge">
<title>ExplorerWebSite&#45;&gt;EthProvider</title>
<path fill="none" stroke="black" d="M1470.27,-761.6C1477.07,-756.21 1484.04,-750.7 1490.84,-745.31"/>
<polygon fill="black" stroke="black" points="1468.09,-758.87 1462.42,-767.82 1472.43,-764.35 1468.09,-758.87"/>
<polygon fill="black" stroke="black" points="1493.05,-748.02 1498.72,-739.07 1488.71,-742.53 1493.05,-748.02"/>
</g>
<!-- ClientComms -->
<g id="node17" class="node">
<title>ClientComms</title>
<g id="a_node17"><a xlink:href="https://github.com/decentraland/explorer/tree/df1d30412dcd1a94d933171a39796837aedc87a1/kernel/packages/shared/comms" xlink:title="Client Comms&lt;FONT POINT&#45;SIZE=&quot;10&quot;&gt;&lt;BR/&gt;&lt;BR/&gt;Abstraction over the communications protocols&lt;/FONT&gt;">
<polygon fill="#fff7fb" stroke="black" stroke-width="2" points="1163.5,-840 942.5,-840 942.5,-768 1163.5,-768 1163.5,-840"/>
<text text-anchor="start" x="986.5" y="-808.7" font-family="Helvetica,Arial,sans-serif" font-size="21.00">Client Comms</text>
<text text-anchor="start" x="950.5" y="-786.5" font-family="Helvetica,Arial,sans-serif" font-size="10.00">Abstraction over the communications protocols</text>
</a>
</g>
</g>
<!-- ClientComms&#45;&gt;ExplorerWebSite -->
<g id="edge15" class="edge">
<title>ClientComms&#45;&gt;ExplorerWebSite</title>
<path fill="none" stroke="black" d="M1174.06,-804C1221.71,-804 1269.35,-804 1317,-804"/>
<polygon fill="black" stroke="black" points="1173.85,-800.5 1163.85,-804 1173.85,-807.5 1173.85,-800.5"/>
<polygon fill="black" stroke="black" points="1317.16,-807.5 1327.16,-804 1317.16,-800.5 1317.16,-807.5"/>
</g>
<!-- VoiceChat -->
<g id="node20" class="node">
<title>VoiceChat</title>
<g id="a_node20"><a xlink:href="https://github.com/decentraland/explorer/tree/af59463dd3882516874c86bc926726bc557d5184/kernel/packages/voice-chat-codec" xlink:title="Voice Chat Module&lt;BR/&gt; &lt;FONT POINT&#45;SIZE=&quot;10&quot;&gt;Set of components to hook&lt;BR/&gt;WebAudio and Worklets to comms&lt;/FONT&gt;">
<polygon fill="#fff7fb" stroke="black" stroke-width="2" points="1150.5,-739 955.5,-739 955.5,-667 1150.5,-667 1150.5,-739"/>
<text text-anchor="start" x="963.5" y="-713.2" font-family="Helvetica,Arial,sans-serif" font-size="21.00">Voice Chat Module</text>
<text text-anchor="start" x="990.5" y="-692.2" font-family="Helvetica,Arial,sans-serif" font-size="21.00"> </text>
<text text-anchor="start" x="997.5" y="-692.2" font-family="Helvetica,Arial,sans-serif" font-size="10.00">Set of components to hook</text>
<text text-anchor="start" x="977.5" y="-680" font-family="Helvetica,Arial,sans-serif" font-size="10.00">WebAudio and Worklets to comms</text>
</a>
</g>
</g>
<!-- ClientComms&#45;&gt;VoiceChat -->
<!-- VoiceChat&#45;&gt;VoiceCodecWorker -->
<g id="edge24" class="edge">
<title>VoiceChat&#45;&gt;VoiceCodecWorker</title>
<path fill="none" stroke="black" d="M1160.86,-703C1168.51,-703 1176.17,-703 1183.82,-703"/>
<polygon fill="black" stroke="black" points="1160.75,-699.5 1150.75,-703 1160.75,-706.5 1160.75,-699.5"/>
<polygon fill="black" stroke="black" points="1183.88,-706.5 1193.88,-703 1183.88,-699.5 1183.88,-706.5"/>
</g>
<!-- SceneLoader -->
<g id="node21" class="node">
<title>SceneLoader</title>
<g id="a_node21"><a xlink:href="https://github.com/decentraland/explorer/tree/df1d30412dcd1a94d933171a39796837aedc87a1/kernel/packages/decentraland-loader" xlink:title="Scene Loader System&lt;BR/&gt; &lt;FONT POINT&#45;SIZE=&quot;10&quot;&gt;High level wrapper around a runtime scene&lt;/FONT&gt;">
<polygon fill="#fff7fb" stroke="black" stroke-width="2" points="1160.5,-575 933.5,-575 933.5,-503 1160.5,-503 1160.5,-575"/>
<text text-anchor="start" x="941.5" y="-544.2" font-family="Helvetica,Arial,sans-serif" font-size="21.00">Scene Loader System</text>
<text text-anchor="start" x="950" y="-523.2" font-family="Helvetica,Arial,sans-serif" font-size="21.00"> </text>
<text text-anchor="start" x="957" y="-523.2" font-family="Helvetica,Arial,sans-serif" font-size="10.00">High level wrapper around a runtime scene</text>
</a>
</g>
</g>
<!-- VoiceChat&#45;&gt;SceneLoader -->
<!-- Scene -->
<g id="node22" class="node">
<title>Scene</title>
<g id="a_node22"><a xlink:href="https://github.com/decentraland/explorer/blob/af59463dd3882516874c86bc926726bc557d5184/kernel/packages/unity-interface/UnityScene.ts#L19" xlink:title="Scene&lt;BR/&gt; &lt;FONT POINT&#45;SIZE=&quot;10&quot;&gt;Loads and Unloads scenes around the User&lt;/FONT&gt;">
<polygon fill="#fff7fb" stroke="black" stroke-width="2" points="1154.5,-474 939.5,-474 939.5,-402 1154.5,-402 1154.5,-474"/>
<text text-anchor="start" x="1016.5" y="-443.2" font-family="Helvetica,Arial,sans-serif" font-size="21.00">Scene</text>
<text text-anchor="start" x="947.5" y="-422.2" font-family="Helvetica,Arial,sans-serif" font-size="21.00"> </text>
<text text-anchor="start" x="954.5" y="-422.2" font-family="Helvetica,Arial,sans-serif" font-size="10.00">Loads and Unloads scenes around the User</text>
</a>
</g>
</g>
<!-- SceneLoader&#45;&gt;Scene -->
<!-- SceneLoader&#45;&gt;Scene -->
<g id="edge22" class="edge">
<title>SceneLoader&#45;&gt;Scene</title>
<path fill="none" stroke="black" d="M1059.99,-502.82C1060.43,-496.84 1060.58,-490.55 1060.46,-484.35"/>
<polygon fill="black" stroke="black" points="1063.94,-483.89 1059.98,-474.07 1056.95,-484.22 1063.94,-483.89"/>
</g>
<!-- Scene&#45;&gt;SceneRuntime -->
<g id="edge28" class="edge">
<title>Scene&#45;&gt;SceneRuntime</title>
<path fill="none" stroke="black" d="M1165.13,-438C1174.01,-438 1182.9,-438 1191.79,-438"/>
<polygon fill="black" stroke="black" points="1164.85,-434.5 1154.85,-438 1164.85,-441.5 1164.85,-434.5"/>
<polygon fill="black" stroke="black" points="1191.82,-441.5 1201.82,-438 1191.82,-434.5 1191.82,-441.5"/>
</g>
<!-- AvatarScene -->
<g id="node23" class="node">
<title>AvatarScene</title>
<g id="a_node23"><a xlink:href="https://github.com/decentraland/explorer/blob/af59463dd3882516874c86bc926726bc557d5184/kernel/packages/ui/avatar/avatarSystem.ts" xlink:title="Avatar Scene&lt;BR/&gt; &lt;FONT POINT&#45;SIZE=&quot;10&quot;&gt;It is a regular Decentraland Scene,.&lt;BR/&gt;it has the size of the world.&lt;BR/&gt; And it renders the avatars using the SDK&lt;/FONT&gt;">
<polygon fill="#fff7fb" stroke="black" stroke-width="2" points="1127,-302 929,-302 929,-230 1127,-230 1127,-302"/>
<text text-anchor="start" x="964" y="-281.2" font-family="Helvetica,Arial,sans-serif" font-size="21.00">Avatar Scene</text>
<text text-anchor="start" x="947" y="-260.2" font-family="Helvetica,Arial,sans-serif" font-size="21.00"> </text>
<text text-anchor="start" x="954" y="-260.2" font-family="Helvetica,Arial,sans-serif" font-size="10.00">It is a regular Decentraland Scene,.</text>
<text text-anchor="start" x="968.5" y="-248" font-family="Helvetica,Arial,sans-serif" font-size="10.00">it has the size of the world.</text>
<text text-anchor="start" x="937" y="-238" font-family="Helvetica,Arial,sans-serif" font-size="10.00"> And it renders the avatars using the SDK</text>
</a>
</g>
</g>
<!-- Scene&#45;&gt;AvatarScene -->
<!-- AvatarScene&#45;&gt;MatrixClient -->
<!-- CatalystPeer -->
<g id="node24" class="node">
<title>CatalystPeer</title>
<g id="a_node24"><a xlink:href="https://github.com/decentraland/catalyst-comms-peer" xlink:title="Peer Library&lt;BR/&gt; &lt;FONT POINT&#45;SIZE=&quot;10&quot;&gt;Comms Library&lt;/FONT&gt;">
<polygon fill="#fff7fb" stroke="black" stroke-width="2" points="790,-840 646,-840 646,-768 790,-768 790,-840"/>
<text text-anchor="start" x="660" y="-809.2" font-family="Helvetica,Arial,sans-serif" font-size="21.00">Peer Library</text>
<text text-anchor="start" x="681" y="-788.2" font-family="Helvetica,Arial,sans-serif" font-size="21.00"> </text>
<text text-anchor="start" x="688" y="-788.2" font-family="Helvetica,Arial,sans-serif" font-size="10.00">Comms Library</text>
</a>
</g>
</g>
<!-- CatalystPeer&#45;&gt;Nginx -->
<g id="edge32" class="edge">
<title>CatalystPeer&#45;&gt;Nginx</title>
<path fill="none" stroke="black" d="M635.86,-804C610.67,-804 585.47,-804 560.28,-804"/>
<polygon fill="black" stroke="black" points="635.89,-807.5 645.89,-804 635.89,-800.5 635.89,-807.5"/>
<polygon fill="black" stroke="black" points="560.19,-800.5 550.19,-804 560.19,-807.5 560.19,-800.5"/>
</g>
<!-- CatalystPeer&#45;&gt;ClientComms -->
<g id="edge23" class="edge">
<title>CatalystPeer&#45;&gt;ClientComms</title>
<path fill="none" stroke="black" d="M800.4,-804C844.32,-804 888.24,-804 932.17,-804"/>
<polygon fill="black" stroke="black" points="800.3,-800.5 790.3,-804 800.3,-807.5 800.3,-800.5"/>
<polygon fill="black" stroke="black" points="932.43,-807.5 942.43,-804 932.43,-800.5 932.43,-807.5"/>
</g>
<!-- CatalystPeer&#45;&gt;Renderer -->
<!-- Renderer&#45;&gt;Scene -->
<g id="edge25" class="edge">
<title>Renderer&#45;&gt;Scene</title>
<path fill="none" stroke="black" d="M852.28,-438C877.89,-438 903.5,-438 929.11,-438"/>
<polygon fill="black" stroke="black" points="852.02,-434.5 842.02,-438 852.02,-441.5 852.02,-434.5"/>
<polygon fill="black" stroke="black" points="929.3,-441.5 939.3,-438 929.3,-434.5 929.3,-441.5"/>
</g>
<!-- Renderer&#45;&gt;AvatarScene -->
<g id="edge26" class="edge">
<title>Renderer&#45;&gt;AvatarScene</title>
<path fill="none" stroke="black" d="M790.79,-397.08C840.23,-369.97 905.39,-334.24 954.9,-307.08"/>
<polygon fill="black" stroke="black" points="788.94,-394.1 781.86,-401.98 792.31,-400.24 788.94,-394.1"/>
<polygon fill="black" stroke="black" points="956.88,-310 963.96,-302.12 953.51,-303.86 956.88,-310"/>
</g>
</g>
</svg>
