<?xml version="1.0" encoding="UTF-8" standalone="no"?>
<!DOCTYPE svg PUBLIC "-//W3C//DTD SVG 1.1//EN"
 "http://www.w3.org/Graphics/SVG/1.1/DTD/svg11.dtd">
<!-- Generated by graphviz version 2.50.0 (20211204.2007)
 -->
<!-- Title: G Pages: 1 -->
<svg width="2032pt" height="1029pt"
 viewBox="0.00 0.00 2031.50 1029.00" xmlns="http://www.w3.org/2000/svg" xmlns:xlink="http://www.w3.org/1999/xlink">
<g id="graph0" class="graph" transform="scale(1 1) rotate(0) translate(4 1025)">
<title>G</title>
<polygon fill="white" stroke="transparent" points="-4,4 -4,-1025 2027.5,-1025 2027.5,4 -4,4"/>
<text text-anchor="middle" x="1011.75" y="-993" font-family="Helvetica,Arial,sans-serif" font-size="30.00">Decentraland</text>
<g id="clust1" class="cluster">
<title>cluster_catalyst</title>
<g id="a_clust1"><a xlink:href="https://github.com/decentraland/catalyst" xlink:title="Catalyst &lt;BR/&gt; &lt;FONT POINT&#45;SIZE=&quot;15&quot;&gt;Decentralized Servers&lt;/FONT&gt;">
<polygon fill="#a6bddb" stroke="black" points="8,-394 8,-904 422,-904 422,-394 8,-394"/>
<text text-anchor="start" x="168" y="-881.8" font-family="Helvetica,Arial,sans-serif" font-size="24.00">Catalyst </text>
<text text-anchor="start" x="137.5" y="-857.8" font-family="Helvetica,Arial,sans-serif" font-size="24.00"> </text>
<text text-anchor="start" x="144.5" y="-857.8" font-family="Helvetica,Arial,sans-serif" font-size="15.00">Decentralized Servers</text>
</a>
</g>
</g>
<g id="clust2" class="cluster">
<title>cluster_cli</title>
<polygon fill="#a6bddb" stroke="black" points="246,-117 246,-386 460,-386 460,-117 246,-117"/>
<text text-anchor="start" x="334" y="-363.8" font-family="Helvetica,Arial,sans-serif" font-size="24.00">CLI</text>
<text text-anchor="start" x="273.5" y="-341" font-family="Helvetica,Arial,sans-serif" font-size="10.00">Command line to start new projects,</text>
<text text-anchor="start" x="291" y="-331" font-family="Helvetica,Arial,sans-serif" font-size="10.00">preview changes and deploy</text>
<text text-anchor="start" x="300" y="-321" font-family="Helvetica,Arial,sans-serif" font-size="10.00">scenes and smart items</text>
</g>
<g id="clust3" class="cluster">
<title>cluster_webbrowser</title>
<polygon fill="#a6bddb" stroke="black" points="676,-8 676,-972 1784,-972 1784,-8 676,-8"/>
<text text-anchor="middle" x="1230" y="-948.8" font-family="Helvetica,Arial,sans-serif" font-size="24.00">Web Browser</text>
</g>
<g id="clust4" class="cluster">
<title>cluster_sceneruntime</title>
<polygon fill="#67a9cf" stroke="black" points="1284,-214 1284,-659 1776,-659 1776,-214 1284,-214"/>
<text text-anchor="middle" x="1530" y="-635.8" font-family="Helvetica,Arial,sans-serif" font-size="24.00">Scene Runtime (Web Worker)</text>
</g>
<g id="clust5" class="cluster">
<title>cluster_bundle</title>
<polygon fill="#3690c0" stroke="black" points="1493,-222 1493,-617 1768,-617 1768,-222 1493,-222"/>
<text text-anchor="middle" x="1630.5" y="-593.8" font-family="Helvetica,Arial,sans-serif" font-size="24.00">Scene Compiled Bundle</text>
</g>
<g id="clust6" class="cluster">
<title>cluster_website</title>
<polygon fill="#67a9cf" stroke="black" points="1409,-760 1409,-882 1607,-882 1607,-760 1409,-760"/>
<text text-anchor="middle" x="1508" y="-858.8" font-family="Helvetica,Arial,sans-serif" font-size="24.00">Web App</text>
</g>
<g id="clust7" class="cluster">
<title>cluster_Kernel</title>
<g id="a_clust7"><a xlink:href="https://github.com/decentraland/kernel" xlink:title="Kernel&lt;FONT POINT&#45;SIZE=&quot;10&quot;&gt;&lt;BR/&gt;&lt;BR/&gt;Code package to bind all low level constructs&lt;BR/&gt; of Decentraland to generate an&lt;BR/&gt; usable Explorer Arrows are omitted for clarity.&lt;BR/&gt; Assume everything is connected to Sagas.&lt;/FONT&gt;">
<polygon fill="#67a9cf" stroke="black" points="940,-16 940,-930 1276,-930 1276,-16 940,-16"/>
<text text-anchor="start" x="1073" y="-907.8" font-family="Helvetica,Arial,sans-serif" font-size="24.00">Kernel</text>
<text text-anchor="start" x="1008.5" y="-885" font-family="Helvetica,Arial,sans-serif" font-size="10.00">Code package to bind all low level constructs</text>
<text text-anchor="start" x="1039" y="-875" font-family="Helvetica,Arial,sans-serif" font-size="10.00"> of Decentraland to generate an</text>
<text text-anchor="start" x="1007.5" y="-865" font-family="Helvetica,Arial,sans-serif" font-size="10.00"> usable Explorer Arrows are omitted for clarity.</text>
<text text-anchor="start" x="1013" y="-855" font-family="Helvetica,Arial,sans-serif" font-size="10.00"> Assume everything is connected to Sagas.</text>
</a>
</g>
</g>
<!-- BFF -->
<g id="node1" class="node">
<title>BFF</title>
<g id="a_node1"><a xlink:href="https://github.com/decentraland/explorer-bff" xlink:title="BFF&lt;BR /&gt; &lt;FONT POINT&#45;SIZE=&quot;10&quot;&gt;P2P Signaling and &lt;br/&gt;Client entry point&lt;/FONT&gt;">
<polygon fill="#fff7fb" stroke="black" stroke-width="2" points="178,-840 34,-840 34,-768 178,-768 178,-840"/>
<text text-anchor="start" x="86" y="-814.2" font-family="Helvetica,Arial,sans-serif" font-size="21.00">BFF</text>
<text text-anchor="start" x="60.5" y="-793.2" font-family="Helvetica,Arial,sans-serif" font-size="21.00"> </text>
<text text-anchor="start" x="67.5" y="-793.2" font-family="Helvetica,Arial,sans-serif" font-size="10.00">P2P Signaling and </text>
<text text-anchor="start" x="68.5" y="-781" font-family="Helvetica,Arial,sans-serif" font-size="10.00">Client entry point</text>
</a>
</g>
</g>
<!-- Nginx -->
<g id="node2" class="node">
<title>Nginx</title>
<polygon fill="#fff7fb" stroke="black" stroke-width="2" points="414,-840 270,-840 270,-768 414,-768 414,-840"/>
<text text-anchor="start" x="314.5" y="-809.2" font-family="Helvetica,Arial,sans-serif" font-size="21.00">Nginx</text>
<text text-anchor="start" x="305.5" y="-788.2" font-family="Helvetica,Arial,sans-serif" font-size="21.00"> </text>
<text text-anchor="start" x="312.5" y="-788.2" font-family="Helvetica,Arial,sans-serif" font-size="10.00">Reverse Proxy</text>
</g>
<!-- BFF&#45;&gt;Nginx -->
<g id="edge6" class="edge">
<title>BFF&#45;&gt;Nginx</title>
<path fill="none" stroke="black" d="M188.72,-804C212.36,-804 236,-804 259.64,-804"/>
<polygon fill="black" stroke="black" points="188.37,-800.5 178.37,-804 188.37,-807.5 188.37,-800.5"/>
<polygon fill="black" stroke="black" points="259.77,-807.5 269.77,-804 259.77,-800.5 259.77,-807.5"/>
</g>
<!-- NATS -->
<g id="node4" class="node">
<title>NATS</title>
<g id="a_node4"><a xlink:href="https://nats.io/" xlink:title="NATS&lt;BR/&gt; &lt;FONT POINT&#45;SIZE=&quot;10&quot;&gt;Message Broker&lt;/FONT&gt;">
<polygon fill="#fff7fb" stroke="black" stroke-width="2" points="376,-739 232,-739 232,-667 376,-667 376,-739"/>
<text text-anchor="start" x="276.5" y="-708.2" font-family="Helvetica,Arial,sans-serif" font-size="21.00">NATS</text>
<text text-anchor="start" x="264.5" y="-687.2" font-family="Helvetica,Arial,sans-serif" font-size="21.00"> </text>
<text text-anchor="start" x="271.5" y="-687.2" font-family="Helvetica,Arial,sans-serif" font-size="10.00">Message Broker</text>
</a>
</g>
</g>
<!-- BFF&#45;&gt;NATS -->
<g id="edge7" class="edge">
<title>BFF&#45;&gt;NATS</title>
<path fill="none" stroke="black" d="M185.39,-763.3C198.24,-756.88 211.55,-750.22 224.41,-743.8"/>
<polygon fill="black" stroke="black" points="183.47,-760.35 176.09,-767.96 186.6,-766.62 183.47,-760.35"/>
<polygon fill="black" stroke="black" points="226.3,-746.77 233.67,-739.16 223.16,-740.5 226.3,-746.77"/>
</g>
<!-- Lambdas -->
<g id="node5" class="node">
<title>Lambdas</title>
<g id="a_node5"><a xlink:href="https://github.com/decentraland/catalyst/tree/main/lambdas" xlink:title="Lambdas&lt;BR/&gt; &lt;FONT POINT&#45;SIZE=&quot;10&quot;&gt;Utilities to retrieve and validate data&lt;/FONT&gt;">
<polygon fill="#fff7fb" stroke="black" stroke-width="2" points="196,-739 16,-739 16,-667 196,-667 196,-739"/>
<text text-anchor="start" x="62" y="-708.2" font-family="Helvetica,Arial,sans-serif" font-size="21.00">Lambdas</text>
<text text-anchor="start" x="24" y="-687.2" font-family="Helvetica,Arial,sans-serif" font-size="21.00"> </text>
<text text-anchor="start" x="31" y="-687.2" font-family="Helvetica,Arial,sans-serif" font-size="10.00">Utilities to retrieve and validate data</text>
</a>
</g>
</g>
<!-- BFF&#45;&gt;Lambdas -->
<!-- Nginx&#45;&gt;NATS -->
<!-- CatalystClient -->
<g id="node9" class="node">
<title>CatalystClient</title>
<g id="a_node9"><a xlink:href="https://github.com/decentraland/catalyst-client" xlink:title="Catalyst Client&lt;BR/&gt; &lt;FONT POINT&#45;SIZE=&quot;10&quot;&gt;Library to interact with Catalyst Servers&lt;/FONT&gt;">
<polygon fill="#fff7fb" stroke="black" stroke-width="2" points="667.5,-302 470.5,-302 470.5,-230 667.5,-230 667.5,-302"/>
<text text-anchor="start" x="500.5" y="-271.2" font-family="Helvetica,Arial,sans-serif" font-size="21.00">Catalyst Client</text>
<text text-anchor="start" x="478.5" y="-250.2" font-family="Helvetica,Arial,sans-serif" font-size="21.00"> </text>
<text text-anchor="start" x="485.5" y="-250.2" font-family="Helvetica,Arial,sans-serif" font-size="10.00">Library to interact with Catalyst Servers</text>
</a>
</g>
</g>
<!-- Nginx&#45;&gt;CatalystClient -->
<g id="edge12" class="edge">
<title>Nginx&#45;&gt;CatalystClient</title>
<path fill="none" stroke="black" d="M423.84,-779.97C482.07,-758.82 556.09,-721.13 592,-659 656.08,-548.15 613.75,-388.95 586.66,-312.02"/>
<polygon fill="black" stroke="black" points="422.54,-776.72 414.27,-783.35 424.87,-783.32 422.54,-776.72"/>
<polygon fill="black" stroke="black" points="589.79,-310.39 583.12,-302.16 583.21,-312.76 589.79,-310.39"/>
</g>
<!-- Archipelago -->
<g id="node3" class="node">
<title>Archipelago</title>
<g id="a_node3"><a xlink:href="https://github.com/decentraland/archipelago-service" xlink:title="Archipelago&lt;BR/&gt; &lt;FONT POINT&#45;SIZE=&quot;10&quot;&gt;Groups peers in islands&lt;/FONT&gt;">
<polygon fill="#fff7fb" stroke="black" stroke-width="2" points="215,-575 71,-575 71,-503 215,-503 215,-575"/>
<text text-anchor="start" x="86.5" y="-544.2" font-family="Helvetica,Arial,sans-serif" font-size="21.00">Archipelago</text>
<text text-anchor="start" x="88" y="-523.2" font-family="Helvetica,Arial,sans-serif" font-size="21.00"> </text>
<text text-anchor="start" x="95" y="-523.2" font-family="Helvetica,Arial,sans-serif" font-size="10.00">Groups peers in islands</text>
</a>
</g>
</g>
<!-- Archipelago&#45;&gt;NATS -->
<g id="edge8" class="edge">
<title>Archipelago&#45;&gt;NATS</title>
<path fill="none" stroke="black" d="M185.02,-582.28C208.7,-606.11 238.19,-635.78 261.89,-659.63"/>
<polygon fill="black" stroke="black" points="187.4,-579.71 177.87,-575.08 182.43,-584.64 187.4,-579.71"/>
<polygon fill="black" stroke="black" points="259.53,-662.22 269.07,-666.85 264.5,-657.29 259.53,-662.22"/>
</g>
<!-- Content -->
<g id="node6" class="node">
<title>Content</title>
<g id="a_node6"><a xlink:href="https://github.com/decentraland/catalyst/tree/main/content" xlink:title="Content Server&lt;BR/&gt; &lt;FONT POINT&#45;SIZE=&quot;10&quot;&gt;Assets Storage&lt;/FONT&gt;">
<polygon fill="#fff7fb" stroke="black" stroke-width="2" points="414,-474 254,-474 254,-402 414,-402 414,-474"/>
<text text-anchor="start" x="262" y="-443.2" font-family="Helvetica,Arial,sans-serif" font-size="21.00">Content Server</text>
<text text-anchor="start" x="296.5" y="-422.2" font-family="Helvetica,Arial,sans-serif" font-size="21.00"> </text>
<text text-anchor="start" x="303.5" y="-422.2" font-family="Helvetica,Arial,sans-serif" font-size="10.00">Assets Storage</text>
</a>
</g>
</g>
<!-- Archipelago&#45;&gt;Content -->
<!-- LiveKit -->
<g id="node7" class="node">
<title>LiveKit</title>
<g id="a_node7"><a xlink:href="https://livekit.io/" xlink:title="LiveKit&lt;BR/&gt; &lt;FONT POINT&#45;SIZE=&quot;10&quot;&gt;High Quality Media Server&lt;/FONT&gt;">
<polygon fill="#fff7fb" stroke="black" stroke-width="2" points="574,-575 430,-575 430,-503 574,-503 574,-575"/>
<text text-anchor="start" x="470" y="-544.2" font-family="Helvetica,Arial,sans-serif" font-size="21.00">LiveKit</text>
<text text-anchor="start" x="441" y="-523.2" font-family="Helvetica,Arial,sans-serif" font-size="21.00"> </text>
<text text-anchor="start" x="448" y="-523.2" font-family="Helvetica,Arial,sans-serif" font-size="10.00">High Quality Media Server</text>
</a>
</g>
</g>
<!-- NATS&#45;&gt;LiveKit -->
<g id="edge10" class="edge">
<title>NATS:e&#45;&gt;LiveKit</title>
<path fill="none" stroke="black" d="M422,-688.27C455.16,-665.19 476.65,-619.57 488.92,-585"/>
<polygon fill="black" stroke="black" points="492.29,-585.96 492.2,-575.37 485.66,-583.7 492.29,-585.96"/>
</g>
<!-- Lambdas&#45;&gt;Nginx -->
<g id="edge5" class="edge">
<title>Lambdas:e&#45;&gt;Nginx</title>
<path fill="none" stroke="black" d="M205.88,-707.78C209.36,-715.29 205.11,-729.91 214,-739 227.12,-752.41 243.63,-763.48 260.4,-772.43"/>
<polygon fill="black" stroke="black" points="207.46,-704.66 197,-703 204.14,-710.82 207.46,-704.66"/>
<polygon fill="black" stroke="black" points="259.22,-775.75 269.72,-777.17 262.4,-769.52 259.22,-775.75"/>
</g>
<!-- Lambdas&#45;&gt;Archipelago -->
<!-- Content&#45;&gt;Nginx -->
<g id="edge4" class="edge">
<title>Content&#45;&gt;Nginx</title>
<path fill="none" stroke="black" d="M357.27,-483.17C385.37,-542.63 425.21,-651.1 394,-739 391.5,-746.05 387.85,-752.89 383.63,-759.31"/>
<polygon fill="black" stroke="black" points="360.37,-481.55 352.87,-474.06 354.07,-484.59 360.37,-481.55"/>
<polygon fill="black" stroke="black" points="380.54,-757.61 377.57,-767.78 386.24,-761.68 380.54,-757.61"/>
</g>
<!-- TheGraph -->
<g id="node8" class="node">
<title>TheGraph</title>
<g id="a_node8"><a xlink:href="https://thegraph.com/hosted-service/subgraph/decentraland/collections-matic-mainnet" xlink:title="The Graph&lt;BR/&gt; &lt;FONT POINT&#45;SIZE=&quot;10&quot;&gt;Query the Blockchain&lt;/FONT&gt;">
<polygon fill="#fff7fb" stroke="black" stroke-width="2" points="234,-302 90,-302 90,-230 234,-230 234,-302"/>
<text text-anchor="start" x="110.5" y="-271.2" font-family="Helvetica,Arial,sans-serif" font-size="21.00">The Graph</text>
<text text-anchor="start" x="111.5" y="-250.2" font-family="Helvetica,Arial,sans-serif" font-size="21.00"> </text>
<text text-anchor="start" x="118.5" y="-250.2" font-family="Helvetica,Arial,sans-serif" font-size="10.00">Query the Blockchain</text>
</a>
</g>
</g>
<!-- Content&#45;&gt;TheGraph -->
<g id="edge11" class="edge">
<title>Content:w&#45;&gt;TheGraph</title>
<path fill="none" stroke="black" d="M191.32,-394C177.86,-368.87 170.54,-337.42 166.58,-312.11"/>
<polygon fill="black" stroke="black" points="170.02,-311.42 165.13,-302.02 163.09,-312.41 170.02,-311.42"/>
</g>
<!-- CLI -->
<g id="node10" class="node">
<title>CLI</title>
<g id="a_node10"><a xlink:href="https://github.com/decentraland/cli" xlink:title="CLI&lt;BR/&gt; &lt;FONT POINT&#45;SIZE=&quot;10&quot;&gt;&lt;BR/&gt;Compiles scenes (build&#45;ecs)&lt;BR/&gt;Preview scenes in browser&lt;BR/&gt;Uploads compiled code to catalys&lt;/FONT&gt;">
<polygon fill="#fff7fb" stroke="black" stroke-width="2" points="434,-306 270,-306 270,-226 434,-226 434,-306"/>
<text text-anchor="start" x="335" y="-286.2" font-family="Helvetica,Arial,sans-serif" font-size="21.00">CLI</text>
<text text-anchor="start" x="348.5" y="-265.2" font-family="Helvetica,Arial,sans-serif" font-size="21.00"> </text>
<text text-anchor="start" x="290" y="-253" font-family="Helvetica,Arial,sans-serif" font-size="10.00">Compiles scenes (build&#45;ecs)</text>
<text text-anchor="start" x="293" y="-243" font-family="Helvetica,Arial,sans-serif" font-size="10.00">Preview scenes in browser</text>
<text text-anchor="start" x="278" y="-233" font-family="Helvetica,Arial,sans-serif" font-size="10.00">Uploads compiled code to catalys</text>
</a>
</g>
</g>
<!-- Content&#45;&gt;CLI -->
<!-- SceneRuntime -->
<g id="node15" class="node">
<title>SceneRuntime</title>
<g id="a_node15"><a xlink:href="https://github.com/decentraland/matrix-client" xlink:title="Scene Runtime&lt;BR/&gt; &lt;FONT POINT&#45;SIZE=&quot;10&quot;&gt;Handles SDK bindings&lt;br/&gt;and messaging with the Scene in Kernel&lt;/FONT&gt;">
<polygon fill="#fff7fb" stroke="black" stroke-width="2" points="1484,-474 1292,-474 1292,-402 1484,-402 1484,-474"/>
<text text-anchor="start" x="1315" y="-448.2" font-family="Helvetica,Arial,sans-serif" font-size="21.00">Scene Runtime</text>
<text text-anchor="start" x="1334.5" y="-427.2" font-family="Helvetica,Arial,sans-serif" font-size="21.00"> </text>
<text text-anchor="start" x="1341.5" y="-427.2" font-family="Helvetica,Arial,sans-serif" font-size="10.00">Handles SDK bindings</text>
<text text-anchor="start" x="1300" y="-415" font-family="Helvetica,Arial,sans-serif" font-size="10.00">and messaging with the Scene in Kernel</text>
</a>
</g>
</g>
<!-- Content&#45;&gt;SceneRuntime -->
<g id="edge35" class="edge">
<title>Content:e&#45;&gt;SceneRuntime</title>
<path fill="none" stroke="black" d="M425.15,-438.09C538.65,-440.2 566.88,-477.55 685,-488.5 813.78,-500.44 1140.19,-513.9 1267,-488.5 1279.63,-485.97 1292.58,-482.09 1305.11,-477.59"/>
<polygon fill="black" stroke="black" points="425.03,-434.59 415,-438 424.97,-441.59 425.03,-434.59"/>
<polygon fill="black" stroke="black" points="1306.45,-480.82 1314.59,-474.03 1303.99,-474.26 1306.45,-480.82"/>
</g>
<!-- Renderer -->
<g id="node28" class="node">
<title>Renderer</title>
<g id="a_node28"><a xlink:href="https://github.com/decentraland/unity-renderer/" xlink:title="Renderer&lt;BR/&gt; &lt;FONT POINT&#45;SIZE=&quot;10&quot;&gt;Different implementations of renderers are available&lt;BR/&gt;to debug in Unity Editor&lt;/FONT&gt;">
<polygon fill="#fff7fb" stroke="black" stroke-width="2" points="932,-474 684,-474 684,-402 932,-402 932,-474"/>
<text text-anchor="start" x="763.5" y="-448.2" font-family="Helvetica,Arial,sans-serif" font-size="21.00">Renderer</text>
<text text-anchor="start" x="692" y="-427.2" font-family="Helvetica,Arial,sans-serif" font-size="21.00"> </text>
<text text-anchor="start" x="699" y="-427.2" font-family="Helvetica,Arial,sans-serif" font-size="10.00">Different implementations of renderers are available</text>
<text text-anchor="start" x="756.5" y="-415" font-family="Helvetica,Arial,sans-serif" font-size="10.00">to debug in Unity Editor</text>
</a>
</g>
</g>
<!-- Content&#45;&gt;Renderer -->
<g id="edge32" class="edge">
<title>Content&#45;&gt;Renderer</title>
<path fill="none" stroke="black" d="M424.09,-438C507.26,-438 590.43,-438 673.6,-438"/>
<polygon fill="black" stroke="black" points="424.08,-434.5 414.08,-438 424.08,-441.5 424.08,-434.5"/>
<polygon fill="black" stroke="black" points="673.75,-441.5 683.75,-438 673.75,-434.5 673.75,-441.5"/>
</g>
<!-- CLI&#45;&gt;CatalystClient -->
<g id="edge15" class="edge">
<title>CLI&#45;&gt;CatalystClient</title>
<path fill="none" stroke="black" d="M434.22,-266C446.24,-266 458.26,-266 470.29,-266"/>
</g>
<!-- build&#45;ecs -->
<g id="node11" class="node">
<title>build&#45;ecs</title>
<g id="a_node11"><a xlink:href="https://github.com/decentraland/js-sdk-toolchain/blob/c648dcabc0ac1aade3cf143769f7e7f67ffba95b/packages/%40dcl/build-ecs/index.ts" xlink:title="build&#45;ecs&lt;FONT POINT&#45;SIZE=&quot;10&quot;&gt;&lt;BR/&gt;Bundles code from senes, AMD and ECS&lt;BR/&gt;to generate deployable scenes&lt;/FONT&gt;">
<polygon fill="#fff7fb" stroke="black" stroke-width="2" points="452,-197 254,-197 254,-125 452,-125 452,-197"/>
<text text-anchor="start" x="310.5" y="-165.7" font-family="Helvetica,Arial,sans-serif" font-size="21.00">build&#45;ecs</text>
<text text-anchor="start" x="262" y="-153.5" font-family="Helvetica,Arial,sans-serif" font-size="10.00">Bundles code from senes, AMD and ECS</text>
<text text-anchor="start" x="286.5" y="-143.5" font-family="Helvetica,Arial,sans-serif" font-size="10.00">to generate deployable scenes</text>
</a>
</g>
</g>
<!-- CLI&#45;&gt;build&#45;ecs -->
<g id="edge13" class="edge">
<title>CLI&#45;&gt;build&#45;ecs</title>
<path fill="none" stroke="black" d="M352.38,-225.77C352.47,-216.33 352.57,-206.31 352.66,-197.07"/>
</g>
<!-- ECS -->
<g id="node17" class="node">
<title>ECS</title>
<g id="a_node17"><a xlink:href="https://github.com/decentraland/explorer/tree/f4c30a3cab1ef014e1f20efdb2a0a12ef6c996e0/kernel/packages/decentraland-ecs" xlink:title="ECS&lt;FONT POINT&#45;SIZE=&quot;10&quot;&gt;&lt;BR/&gt;The public library to interact with Decentraland.&lt;BR/&gt;Sometimes people refers to the ECS as “The SDK”&lt;/FONT&gt;">
<polygon fill="#fff7fb" stroke="black" stroke-width="2" points="1760,-474 1520,-474 1520,-402 1760,-402 1760,-474"/>
<text text-anchor="start" x="1618" y="-442.7" font-family="Helvetica,Arial,sans-serif" font-size="21.00">ECS</text>
<text text-anchor="start" x="1537" y="-430.5" font-family="Helvetica,Arial,sans-serif" font-size="10.00">The public library to interact with Decentraland.</text>
<text text-anchor="start" x="1528" y="-420.5" font-family="Helvetica,Arial,sans-serif" font-size="10.00">Sometimes people refers to the ECS as “The SDK”</text>
</a>
</g>
</g>
<!-- build&#45;ecs&#45;&gt;ECS -->
<g id="edge38" class="edge">
<title>build&#45;ecs:e&#45;&gt;ECS:e</title>
<path fill="none" stroke="black" d="M453,-161C559.2,-161 588.94,-170.9 686,-214 807.6,-267.99 804.42,-345.05 931,-386 958.87,-395.02 1385.26,-393.67 1493,-393.86"/>
</g>
<!-- Synapse -->
<g id="node12" class="node">
<title>Synapse</title>
<g id="a_node12"><a xlink:href="https://github.com/decentraland/catalyst-client" xlink:title="Synapse Matrix Server&lt;BR/&gt; &lt;FONT POINT&#45;SIZE=&quot;10&quot;&gt;Decentralized Service to manages&lt;BR/&gt;private chats and Friendships&lt;/FONT&gt;">
<polygon fill="#fff7fb" stroke="black" stroke-width="2" points="2023.5,-197 1792.5,-197 1792.5,-125 2023.5,-125 2023.5,-197"/>
<text text-anchor="start" x="1800.5" y="-171.2" font-family="Helvetica,Arial,sans-serif" font-size="21.00">Synapse Matrix Server</text>
<text text-anchor="start" x="1829" y="-150.2" font-family="Helvetica,Arial,sans-serif" font-size="21.00"> </text>
<text text-anchor="start" x="1836" y="-150.2" font-family="Helvetica,Arial,sans-serif" font-size="10.00">Decentralized Service to manages</text>
<text text-anchor="start" x="1843.5" y="-138" font-family="Helvetica,Arial,sans-serif" font-size="10.00">private chats and Friendships</text>
</a>
</g>
</g>
<!-- MatrixClient -->
<g id="node13" class="node">
<title>MatrixClient</title>
<g id="a_node13"><a xlink:href="https://github.com/decentraland/matrix-client" xlink:title="Matrix Client&lt;BR/&gt; &lt;FONT POINT&#45;SIZE=&quot;10&quot;&gt;Abstraction over the Matrix protocol to&lt;BR/&gt; enable Friends list and private chats&lt;/FONT&gt;">
<polygon fill="#fff7fb" stroke="black" stroke-width="2" points="1213,-197 1023,-197 1023,-125 1213,-125 1213,-197"/>
<text text-anchor="start" x="1059" y="-171.2" font-family="Helvetica,Arial,sans-serif" font-size="21.00">Matrix Client</text>
<text text-anchor="start" x="1031" y="-150.2" font-family="Helvetica,Arial,sans-serif" font-size="21.00"> </text>
<text text-anchor="start" x="1038" y="-150.2" font-family="Helvetica,Arial,sans-serif" font-size="10.00">Abstraction over the Matrix protocol to</text>
<text text-anchor="start" x="1037.5" y="-138" font-family="Helvetica,Arial,sans-serif" font-size="10.00"> enable Friends list and private chats</text>
</a>
</g>
</g>
<!-- Synapse&#45;&gt;MatrixClient -->
<g id="edge16" class="edge">
<title>Synapse&#45;&gt;MatrixClient</title>
<path fill="none" stroke="black" d="M1782.05,-161C1595.85,-161 1409.65,-161 1223.46,-161"/>
<polygon fill="black" stroke="black" points="1782.33,-164.5 1792.33,-161 1782.33,-157.5 1782.33,-164.5"/>
<polygon fill="black" stroke="black" points="1223.28,-157.5 1213.28,-161 1223.28,-164.5 1223.28,-157.5"/>
</g>
<!-- Sagas -->
<g id="node22" class="node">
<title>Sagas</title>
<ellipse fill="#fff7fb" stroke="black" stroke-width="2" cx="1108" cy="-60" rx="159.65" ry="36"/>
<text text-anchor="start" x="1077.5" y="-65.2" font-family="Helvetica,Arial,sans-serif" font-size="21.00">Sagas</text>
<text text-anchor="start" x="1001" y="-44.2" font-family="Helvetica,Arial,sans-serif" font-size="21.00"> </text>
<text text-anchor="start" x="1008" y="-44.2" font-family="Helvetica,Arial,sans-serif" font-size="10.00">Like an ESB: Everything is connected to sagas</text>
</g>
<!-- MatrixClient&#45;&gt;Sagas -->
<!-- VoiceCodecWorker -->
<g id="node14" class="node">
<title>VoiceCodecWorker</title>
<polygon fill="#fff7fb" stroke="black" stroke-width="2" points="1500,-739 1284,-739 1284,-667 1500,-667 1500,-739"/>
<text text-anchor="start" x="1295.5" y="-707.7" font-family="Helvetica,Arial,sans-serif" font-size="21.00">Voice Codec Worker</text>
<text text-anchor="start" x="1292" y="-685.5" font-family="Helvetica,Arial,sans-serif" font-size="10.00">Encodes/decodes audio using libopus (wasm)</text>
</g>
<!-- SceneRuntime&#45;&gt;ECS -->
<g id="edge34" class="edge">
<title>SceneRuntime&#45;&gt;ECS</title>
<path fill="none" stroke="black" d="M1494.65,-438C1499.61,-438 1504.57,-438 1509.53,-438"/>
<polygon fill="black" stroke="black" points="1494.47,-434.5 1484.47,-438 1494.47,-441.5 1494.47,-434.5"/>
<polygon fill="black" stroke="black" points="1509.71,-441.5 1519.71,-438 1509.71,-434.5 1509.71,-441.5"/>
</g>
<!-- AMD -->
<g id="node16" class="node">
<title>AMD</title>
<g id="a_node16"><a xlink:href="https://github.com/decentraland/js-sdk-toolchain/tree/c648dcabc0ac1aade3cf143769f7e7f67ffba95b/packages/%40dcl/amd" xlink:title="AMD&lt;FONT POINT&#45;SIZE=&quot;10&quot;&gt;&lt;BR/&gt;Manages loading of RPC modules to interact&lt;BR/&gt;with different components of Decentraland&lt;/FONT&gt;">
<polygon fill="#fff7fb" stroke="black" stroke-width="2" points="1746,-575 1534,-575 1534,-503 1746,-503 1746,-575"/>
<text text-anchor="start" x="1616.5" y="-543.7" font-family="Helvetica,Arial,sans-serif" font-size="21.00">AMD</text>
<text text-anchor="start" x="1542" y="-531.5" font-family="Helvetica,Arial,sans-serif" font-size="10.00">Manages loading of RPC modules to interact</text>
<text text-anchor="start" x="1547.5" y="-521.5" font-family="Helvetica,Arial,sans-serif" font-size="10.00">with different components of Decentraland</text>
</a>
</g>
</g>
<!-- AMD&#45;&gt;ECS -->
<!-- UserCode -->
<g id="node18" class="node">
<title>UserCode</title>
<polygon fill="#fff7fb" stroke="black" stroke-width="2" points="1738.5,-302 1541.5,-302 1541.5,-230 1738.5,-230 1738.5,-302"/>
<text text-anchor="start" x="1589" y="-270.7" font-family="Helvetica,Arial,sans-serif" font-size="21.00">User Code</text>
<text text-anchor="start" x="1549.5" y="-258.5" font-family="Helvetica,Arial,sans-serif" font-size="10.00">User generated code is part of the bundle</text>
<text text-anchor="start" x="1608" y="-248.5" font-family="Helvetica,Arial,sans-serif" font-size="10.00"> of the Scenes</text>
</g>
<!-- ECS&#45;&gt;UserCode -->
<!-- ExplorerWebSite -->
<g id="node19" class="node">
<title>ExplorerWebSite</title>
<g id="a_node19"><a xlink:href="https://github.com/decentraland/explorer/tree/df1d30412dcd1a94d933171a39796837aedc87a1/kernel/packages/shared/comms" xlink:title="Explorer Website&lt;FONT POINT&#45;SIZE=&quot;10&quot;&gt;&lt;BR/&gt;&lt;BR/&gt;React App to load kernel and renderer&lt;/FONT&gt;">
<polygon fill="#fff7fb" stroke="black" stroke-width="2" points="1598.5,-840 1417.5,-840 1417.5,-768 1598.5,-768 1598.5,-840"/>
<text text-anchor="start" x="1427.5" y="-808.7" font-family="Helvetica,Arial,sans-serif" font-size="21.00">Explorer Website</text>
<text text-anchor="start" x="1425.5" y="-786.5" font-family="Helvetica,Arial,sans-serif" font-size="10.00">React App to load kernel and renderer</text>
</a>
</g>
</g>
<!-- EthProvider -->
<g id="node21" class="node">
<title>EthProvider</title>
<polygon fill="#fff7fb" stroke="black" stroke-width="2" points="1730,-739 1536,-739 1536,-667 1730,-667 1730,-739"/>
<text text-anchor="middle" x="1633" y="-697.7" font-family="Helvetica,Arial,sans-serif" font-size="21.00">Ethereum Provider</text>
</g>
<!-- ExplorerWebSite&#45;&gt;EthProvider -->
<g id="edge19" class="edge">
<title>ExplorerWebSite&#45;&gt;EthProvider</title>
<path fill="none" stroke="black" d="M1560.27,-761.6C1567.07,-756.21 1574.04,-750.7 1580.84,-745.31"/>
<polygon fill="black" stroke="black" points="1558.09,-758.87 1552.42,-767.82 1562.43,-764.35 1558.09,-758.87"/>
<polygon fill="black" stroke="black" points="1583.05,-748.02 1588.72,-739.07 1578.71,-742.53 1583.05,-748.02"/>
</g>
<!-- ClientComms -->
<g id="node20" class="node">
<title>ClientComms</title>
<g id="a_node20"><a xlink:href="https://github.com/decentraland/explorer/tree/df1d30412dcd1a94d933171a39796837aedc87a1/kernel/packages/shared/comms" xlink:title="Client Comms&lt;FONT POINT&#45;SIZE=&quot;10&quot;&gt;&lt;BR/&gt;&lt;BR/&gt;Abstraction over the communications protocols&lt;/FONT&gt;">
<polygon fill="#fff7fb" stroke="black" stroke-width="2" points="1253.5,-840 1032.5,-840 1032.5,-768 1253.5,-768 1253.5,-840"/>
<text text-anchor="start" x="1076.5" y="-808.7" font-family="Helvetica,Arial,sans-serif" font-size="21.00">Client Comms</text>
<text text-anchor="start" x="1040.5" y="-786.5" font-family="Helvetica,Arial,sans-serif" font-size="10.00">Abstraction over the communications protocols</text>
</a>
</g>
</g>
<!-- ClientComms&#45;&gt;ExplorerWebSite -->
<g id="edge20" class="edge">
<title>ClientComms&#45;&gt;ExplorerWebSite</title>
<path fill="none" stroke="black" d="M1264.06,-804C1311.71,-804 1359.35,-804 1407,-804"/>
<polygon fill="black" stroke="black" points="1263.85,-800.5 1253.85,-804 1263.85,-807.5 1263.85,-800.5"/>
<polygon fill="black" stroke="black" points="1407.16,-807.5 1417.16,-804 1407.16,-800.5 1407.16,-807.5"/>
</g>
<!-- VoiceChat -->
<g id="node23" class="node">
<title>VoiceChat</title>
<g id="a_node23"><a xlink:href="https://github.com/decentraland/explorer/tree/af59463dd3882516874c86bc926726bc557d5184/kernel/packages/voice-chat-codec" xlink:title="Voice Chat Module&lt;BR/&gt; &lt;FONT POINT&#45;SIZE=&quot;10&quot;&gt;Set of components to hook&lt;BR/&gt;WebAudio and Worklets to comms&lt;/FONT&gt;">
<polygon fill="#fff7fb" stroke="black" stroke-width="2" points="1240.5,-739 1045.5,-739 1045.5,-667 1240.5,-667 1240.5,-739"/>
<text text-anchor="start" x="1053.5" y="-713.2" font-family="Helvetica,Arial,sans-serif" font-size="21.00">Voice Chat Module</text>
<text text-anchor="start" x="1080.5" y="-692.2" font-family="Helvetica,Arial,sans-serif" font-size="21.00"> </text>
<text text-anchor="start" x="1087.5" y="-692.2" font-family="Helvetica,Arial,sans-serif" font-size="10.00">Set of components to hook</text>
<text text-anchor="start" x="1067.5" y="-680" font-family="Helvetica,Arial,sans-serif" font-size="10.00">WebAudio and Worklets to comms</text>
</a>
</g>
</g>
<!-- ClientComms&#45;&gt;VoiceChat -->
<!-- VoiceChat&#45;&gt;VoiceCodecWorker -->
<g id="edge29" class="edge">
<title>VoiceChat&#45;&gt;VoiceCodecWorker</title>
<path fill="none" stroke="black" d="M1250.86,-703C1258.51,-703 1266.17,-703 1273.82,-703"/>
<polygon fill="black" stroke="black" points="1250.75,-699.5 1240.75,-703 1250.75,-706.5 1250.75,-699.5"/>
<polygon fill="black" stroke="black" points="1273.88,-706.5 1283.88,-703 1273.88,-699.5 1273.88,-706.5"/>
</g>
<!-- SceneLoader -->
<g id="node24" class="node">
<title>SceneLoader</title>
<g id="a_node24"><a xlink:href="https://github.com/decentraland/explorer/tree/df1d30412dcd1a94d933171a39796837aedc87a1/kernel/packages/decentraland-loader" xlink:title="Scene Loader System&lt;BR/&gt; &lt;FONT POINT&#45;SIZE=&quot;10&quot;&gt;High level wrapper around a runtime scene&lt;/FONT&gt;">
<polygon fill="#fff7fb" stroke="black" stroke-width="2" points="1250.5,-575 1023.5,-575 1023.5,-503 1250.5,-503 1250.5,-575"/>
<text text-anchor="start" x="1031.5" y="-544.2" font-family="Helvetica,Arial,sans-serif" font-size="21.00">Scene Loader System</text>
<text text-anchor="start" x="1040" y="-523.2" font-family="Helvetica,Arial,sans-serif" font-size="21.00"> </text>
<text text-anchor="start" x="1047" y="-523.2" font-family="Helvetica,Arial,sans-serif" font-size="10.00">High level wrapper around a runtime scene</text>
</a>
</g>
</g>
<!-- VoiceChat&#45;&gt;SceneLoader -->
<!-- Scene -->
<g id="node25" class="node">
<title>Scene</title>
<g id="a_node25"><a xlink:href="https://github.com/decentraland/explorer/blob/af59463dd3882516874c86bc926726bc557d5184/kernel/packages/unity-interface/UnityScene.ts#L19" xlink:title="Scene&lt;BR/&gt; &lt;FONT POINT&#45;SIZE=&quot;10&quot;&gt;Loads and Unloads scenes around the User&lt;/FONT&gt;">
<polygon fill="#fff7fb" stroke="black" stroke-width="2" points="1244.5,-474 1029.5,-474 1029.5,-402 1244.5,-402 1244.5,-474"/>
<text text-anchor="start" x="1106.5" y="-443.2" font-family="Helvetica,Arial,sans-serif" font-size="21.00">Scene</text>
<text text-anchor="start" x="1037.5" y="-422.2" font-family="Helvetica,Arial,sans-serif" font-size="21.00"> </text>
<text text-anchor="start" x="1044.5" y="-422.2" font-family="Helvetica,Arial,sans-serif" font-size="10.00">Loads and Unloads scenes around the User</text>
</a>
</g>
</g>
<!-- SceneLoader&#45;&gt;Scene -->
<!-- SceneLoader&#45;&gt;Scene -->
<g id="edge27" class="edge">
<title>SceneLoader&#45;&gt;Scene</title>
<path fill="none" stroke="black" d="M1149.99,-502.82C1150.43,-496.84 1150.58,-490.55 1150.46,-484.35"/>
<polygon fill="black" stroke="black" points="1153.94,-483.89 1149.98,-474.07 1146.95,-484.22 1153.94,-483.89"/>
</g>
<!-- Scene&#45;&gt;SceneRuntime -->
<g id="edge33" class="edge">
<title>Scene&#45;&gt;SceneRuntime</title>
<path fill="none" stroke="black" d="M1255.13,-438C1264.01,-438 1272.9,-438 1281.79,-438"/>
<polygon fill="black" stroke="black" points="1254.85,-434.5 1244.85,-438 1254.85,-441.5 1254.85,-434.5"/>
<polygon fill="black" stroke="black" points="1281.82,-441.5 1291.82,-438 1281.82,-434.5 1281.82,-441.5"/>
</g>
<!-- AvatarScene -->
<g id="node26" class="node">
<title>AvatarScene</title>
<g id="a_node26"><a xlink:href="https://github.com/decentraland/explorer/blob/af59463dd3882516874c86bc926726bc557d5184/kernel/packages/ui/avatar/avatarSystem.ts" xlink:title="Avatar Scene&lt;BR/&gt; &lt;FONT POINT&#45;SIZE=&quot;10&quot;&gt;It is a regular Decentraland Scene,.&lt;BR/&gt;it has the size of the world.&lt;BR/&gt; And it renders the avatars using the SDK&lt;/FONT&gt;">
<polygon fill="#fff7fb" stroke="black" stroke-width="2" points="1217,-302 1019,-302 1019,-230 1217,-230 1217,-302"/>
<text text-anchor="start" x="1054" y="-281.2" font-family="Helvetica,Arial,sans-serif" font-size="21.00">Avatar Scene</text>
<text text-anchor="start" x="1037" y="-260.2" font-family="Helvetica,Arial,sans-serif" font-size="21.00"> </text>
<text text-anchor="start" x="1044" y="-260.2" font-family="Helvetica,Arial,sans-serif" font-size="10.00">It is a regular Decentraland Scene,.</text>
<text text-anchor="start" x="1058.5" y="-248" font-family="Helvetica,Arial,sans-serif" font-size="10.00">it has the size of the world.</text>
<text text-anchor="start" x="1027" y="-238" font-family="Helvetica,Arial,sans-serif" font-size="10.00"> And it renders the avatars using the SDK</text>
</a>
</g>
</g>
<!-- Scene&#45;&gt;AvatarScene -->
<!-- AvatarScene&#45;&gt;MatrixClient -->
<!-- CatalystPeer -->
<g id="node27" class="node">
<title>CatalystPeer</title>
<g id="a_node27"><a xlink:href="https://github.com/decentraland/catalyst-comms-peer" xlink:title="Peer Library&lt;BR/&gt; &lt;FONT POINT&#45;SIZE=&quot;10&quot;&gt;Comms Library&lt;/FONT&gt;">
<polygon fill="#fff7fb" stroke="black" stroke-width="2" points="880,-840 736,-840 736,-768 880,-768 880,-840"/>
<text text-anchor="start" x="750" y="-809.2" font-family="Helvetica,Arial,sans-serif" font-size="21.00">Peer Library</text>
<text text-anchor="start" x="771" y="-788.2" font-family="Helvetica,Arial,sans-serif" font-size="21.00"> </text>
<text text-anchor="start" x="778" y="-788.2" font-family="Helvetica,Arial,sans-serif" font-size="10.00">Comms Library</text>
</a>
</g>
</g>
<!-- CatalystPeer&#45;&gt;Nginx -->
<g id="edge37" class="edge">
<title>CatalystPeer&#45;&gt;Nginx</title>
<path fill="none" stroke="black" d="M725.7,-804C625.26,-804 524.83,-804 424.4,-804"/>
<polygon fill="black" stroke="black" points="725.73,-807.5 735.73,-804 725.73,-800.5 725.73,-807.5"/>
<polygon fill="black" stroke="black" points="424.36,-800.5 414.36,-804 424.36,-807.5 424.36,-800.5"/>
</g>
<!-- CatalystPeer&#45;&gt;ClientComms -->
<g id="edge28" class="edge">
<title>CatalystPeer&#45;&gt;ClientComms</title>
<path fill="none" stroke="black" d="M890.4,-804C934.32,-804 978.24,-804 1022.17,-804"/>
<polygon fill="black" stroke="black" points="890.3,-800.5 880.3,-804 890.3,-807.5 890.3,-800.5"/>
<polygon fill="black" stroke="black" points="1022.43,-807.5 1032.43,-804 1022.43,-800.5 1022.43,-807.5"/>
</g>
<!-- CatalystPeer&#45;&gt;Renderer -->
<!-- Renderer&#45;&gt;Scene -->
<g id="edge30" class="edge">
<title>Renderer&#45;&gt;Scene</title>
<path fill="none" stroke="black" d="M942.28,-438C967.89,-438 993.5,-438 1019.11,-438"/>
<polygon fill="black" stroke="black" points="942.02,-434.5 932.02,-438 942.02,-441.5 942.02,-434.5"/>
<polygon fill="black" stroke="black" points="1019.3,-441.5 1029.3,-438 1019.3,-434.5 1019.3,-441.5"/>
</g>
<!-- Renderer&#45;&gt;AvatarScene -->
<g id="edge31" class="edge">
<title>Renderer&#45;&gt;AvatarScene</title>
<path fill="none" stroke="black" d="M880.79,-397.08C930.23,-369.97 995.39,-334.24 1044.9,-307.08"/>
<polygon fill="black" stroke="black" points="878.94,-394.1 871.86,-401.98 882.31,-400.24 878.94,-394.1"/>
<polygon fill="black" stroke="black" points="1046.88,-310 1053.96,-302.12 1043.51,-303.86 1046.88,-310"/>
</g>
<!-- Comms -->
<g id="node29" class="node">
<title>Comms</title>
<polygon fill="#fff7fb" stroke="black" stroke-width="2" points="1936,-840 1792,-840 1792,-768 1936,-768 1936,-840"/>
<text text-anchor="middle" x="1864" y="-798.7" font-family="Helvetica,Arial,sans-serif" font-size="21.00">Comms</text>
</g>
</g>
</svg>
